# xmcd CD database file
#
# Track frame offsets:
#	183
#	38158
#	74035
#	94843
#	123883
#	150210
#
# Disc length: 2375 seconds
#
# Revision: 0
# Processed by: cddbd v1.4PL0 Copyright (c) Steve Scherf et al.
# Submitted via: CDex 1.50beta10
#
DISCID=45094506
DTITLE=New York Jazz Quartet - Song of the black knight
DYEAR=1977
DGENRE=Jazz
TTITLE0=Song of the black knight
TTITLE1=Time for the dancers
TTITLE2=After Paris
TTITLE3=A romp in the woods somewhere
TTITLE4=Estoril soul
TTITLE5=Terezia
EXTD=YEAR: 1977
EXTT0=
EXTT1=
EXTT2=
EXTT3=
EXTT4=
EXTT5=
PLAYORDER=
